#!OML:ASF X:\für Bonn\!DataBase\2005_08_12_Daniel\c3d\Daniel.ASF
:FULLY-SPECIFIED
:DEGREES
2658
root -3.75249 6.88459 -2.81284 318.359 -78.8736 -352.497
lowerback 56.8883 -4.40282 0.475585
upperback 5.17936 -7.16858 -2.75061
thorax -16.0649 -3.61134 0.477028
lowerneck 5.31 1.4417 -2.58041
upperneck -3.3017 1.79543 1.26772
head -1.98189 0.896627 0.781207
rclavicle -1.32192e-014 1.39149e-014
rhumerus 72.7766 -12.5992 -127.727
rradius 10.1089
rwrist 99.151
rhand -16.6634 15.1662
rfingers 7.12502
rthumb 9.56007 -14.5969
lclavicle -1.32192e-014 1.39149e-014
lhumerus 71.4557 2.83788 98.8215
lradius 8.12632
lwrist -71.5409
lhand -17.8058 1.22984
lfingers 7.12502
lthumb 8.45773 31.0405
rfemur 19.5675 -43.1745 -137.997
rtibia 155.392
rfoot -72.5157 70.8211
rtoes -0.438893
lfemur -51.2397 59.5659 35.905
ltibia 153.578
lfoot -16.793 -58.068
ltoes 3.66995
2659
root -3.75791 6.74768 -2.81575 318.139 -78.8444 -352.811
lowerback 57.3055 -4.4054 0.488965
upperback 5.26155 -7.18838 -2.73427
thorax -15.9956 -3.63373 0.501559
lowerneck 5.38245 1.45837 -2.6138
upperneck -3.42736 1.8171 1.33454
head -2.03814 0.906479 0.807312
rclavicle 4.74101e-014 -2.66371e-014
rhumerus 72.3798 -12.1935 -125.939
rradius 10.2592
rwrist 96.9314
rhand -16.4894 15.1181
rfingers 7.12502
rthumb 9.72799 -14.6372
lclavicle 4.74101e-014 -2.66371e-014
lhumerus 71.4698 2.87817 98.9094
lradius 8.21374
lwrist -71.767
lhand -17.5985 1.17571
lfingers 7.12502
lthumb 8.65779 30.9782
rfemur 17.8164 -42.4228 -139.256
rtibia 156.435
rfoot -75.6486 71.5467
rtoes -0.373702
lfemur -50.2086 60.8469 39.2448
ltibia 154.548
lfoot -16.0954 -59.5057
ltoes 3.89273
2660
root -3.76232 6.62339 -2.81857 317.996 -78.8174 -353.175
lowerback 57.711 -4.42136 0.50706
upperback 5.33696 -7.2199 -2.71601
thorax -15.932 -3.66073 0.532098
lowerneck 5.44511 1.487 -2.67039
upperneck -3.54553 1.85438 1.42301
head -2.09136 0.923792 0.843865
rclavicle 2.6339e-014 4.65156e-014
rhumerus 72.1535 -11.872 -124.685
rradius 10.2662
rwrist 95.1883
rhand -16.4036 15.0844
rfingers 7.12502
rthumb 9.81077 -14.6671
lclavicle 2.6339e-014 4.65156e-014
lhumerus 71.4686 2.95964 98.981
lradius 8.32912
lwrist -72.1101
lhand -17.2944 1.06267
lfingers 7.12502
lthumb 8.95124 30.8528
rfemur 15.9941 -41.7682 -140.213
rtibia 157.392
rfoot -78.9567 72.0377
rtoes -0.425189
lfemur -49.3995 61.8574 42.1521
ltibia 155.411
lfoot -15.3374 -60.7138
ltoes 3.94369
2661
root -3.76593 6.511 -2.82037 317.862 -78.8013 -353.528
lowerback 58.1129 -4.44318 0.55645
upperback 5.39993 -7.23975 -2.70999
thorax -15.8852 -3.68274 0.529446
lowerneck 5.30726 1.49945 -2.6704
upperneck -3.50882 1.87794 1.49386
head -2.05589 0.934 0.8661
rclavicle -2.03754e-014 2.78299e-015
rhumerus 72.5045 -12.0342 -125.237
rradius 9.90709
rwrist 95.3599
rhand -16.5996 15.1069
rfingers 7.12502
rthumb 9.62171 -14.6533
lclavicle -2.03754e-014 2.78299e-015
lhumerus 71.397 3.00453 99.0579
lradius 8.49363
lwrist -72.5405
lhand -16.9086 1.03609
lfingers 7.12502
lthumb 9.32358 30.8099
rfemur 14.2109 -41.1841 -140.968
rtibia 158.243
rfoot -82.2683 72.3613
rtoes -0.538321
lfemur -48.7244 62.6639 44.7056
ltibia 156.181
lfoot -14.7429 -61.7321
ltoes 3.96586
2662
root -3.76596 6.46403 -2.82173 317.706 -78.786 -353.784
lowerback 58.4508 -4.44216 0.559453
upperback 5.45241 -7.25399 -2.68483
thorax -15.8392 -3.69955 0.565431
lowerneck 5.26956 1.51982 -2.71782
upperneck -3.53862 1.9062 1.56268
head -2.0613 0.947196 0.895456
rclavicle 2.97183e-014 -2.14687e-014
rhumerus 72.7314 -12.1472 -125.783
rradius 9.69884
rwrist 95.5595
rhand -16.7099 15.1639
rfingers 7.12502
rthumb 9.51525 -14.6012
lclavicle 2.97183e-014 -2.14687e-014
lhumerus 71.2728 3.09218 99.1424
lradius 8.69408
lwrist -73.0032
lhand -16.5509 0.945201
lfingers 7.12502
lthumb 9.66868 30.7033
rfemur 13.4393 -40.4455 -141.73
rtibia 158.634
rfoot -85.1993 71.8142
rtoes -0.94928
lfemur -46.637 63.5111 47.8325
ltibia 156.466
lfoot -15.235 -62.5997
ltoes 3.98065
2663
root -3.76645 6.37693 -2.8231 317.629 -78.7783 -354.051
lowerback 58.7376 -4.45122 0.579146
upperback 5.49243 -7.26645 -2.66269
thorax -15.8056 -3.71435 0.589672
lowerneck 5.31142 1.54035 -2.77076
upperneck -3.60841 1.93218 1.62666
head -2.09431 0.959298 0.924096
rclavicle 1.5704e-014 -4.21423e-014
rhumerus 72.8464 -12.2992 -126.317
rradius 9.63767
rwrist 95.9278
rhand -16.8063 15.1834
rfingers 7.12502
rthumb 9.42226 -14.586
lclavicle 1.5704e-014 -4.21423e-014
lhumerus 71.0639 3.19427 99.2221
lradius 8.95444
lwrist -73.4545
lhand -16.2147 0.85822
lfingers 7.12502
lthumb 9.993 30.601
rfemur 11.9176 -39.9395 -142.242
rtibia 159.342
rfoot -88.277 71.4089
rtoes -1.50966
lfemur -46.0056 64.1415 49.9732
ltibia 157.068
lfoot -14.8107 -63.3675
ltoes 4.00214
2664
root -3.76564 6.3016 -2.8238 317.424 -78.7815 -354.092
lowerback 58.9193 -4.43868 0.582275
upperback 5.54061 -7.26359 -2.65871
thorax -15.7569 -3.72122 0.591066
lowerneck 5.32618 1.55308 -2.80918
upperneck -3.63419 1.94897 1.68471
head -2.10744 0.96669 0.948723
rclavicle 3.58806e-014 -7.55382e-015
rhumerus 72.9333 -12.4996 -126.855
rradius 9.66863
rwrist 96.4126
rhand -16.8144 15.2989
rfingers 7.12502
rthumb 9.41444 -14.4709
lclavicle 3.58806e-014 -7.55382e-015
lhumerus 70.8897 3.26452 99.295
lradius 9.08479
lwrist -73.9342
lhand -16.0974 0.801932
lfingers 7.12502
lthumb 10.1061 30.5392
rfemur 10.5472 -39.5877 -142.679
rtibia 159.984
rfoot -90.8518 71.0132
rtoes -2.01338
lfemur -45.3988 64.7608 51.8357
ltibia 157.598
lfoot -14.6696 -63.9482
ltoes 3.99555
